<?xml version="1.0" encoding="UTF-8"?>
<svg version="1.1" xmlns="http://www.w3.org/2000/svg" viewBox="0 0 765 668">
<path d="M0 0 C252.45 0 504.9 0 765 0 C765 220.44 765 440.88 765 668 C512.55 668 260.1 668 0 668 C0 447.56 0 227.12 0 0 Z " fill="#F3393E" transform="translate(0,0)"/>
<path d="M0 0 C1.7183281 -0.00462053 3.43665224 -0.01098112 5.15496826 -0.01890898 C9.83109341 -0.0354673 14.50688823 -0.02741804 19.18301392 -0.0149641 C24.24377579 -0.00586012 29.3044835 -0.0199097 34.36523438 -0.03088379 C44.26120846 -0.04861682 54.1570608 -0.04485234 64.05303955 -0.03323323 C72.09982294 -0.02417859 80.14657235 -0.02298367 88.19335938 -0.02732849 C89.34112225 -0.02794142 90.48888512 -0.02855436 91.67142868 -0.02918586 C94.00350445 -0.03046484 96.3355802 -0.03176169 98.66765594 -0.03307623 C120.506122 -0.04446675 142.34452075 -0.03139232 164.18297577 -0.00987476 C182.8980592 0.00799481 201.61304336 0.00489027 220.328125 -0.0135498 C242.0915083 -0.03498353 263.85483271 -0.04336825 285.6182251 -0.03110075 C287.94144693 -0.02982663 290.26466877 -0.02856915 292.58789062 -0.02732849 C293.7307893 -0.02671139 294.87368797 -0.02609429 296.05121994 -0.02545848 C304.0829892 -0.02201309 312.11472093 -0.02781641 320.14648438 -0.0372467 C329.94218623 -0.04849589 339.73775997 -0.04536539 349.53344727 -0.02412373 C354.5258692 -0.01365256 359.51807796 -0.00942401 364.51049805 -0.02272034 C369.0900252 -0.03473202 373.6691437 -0.0279387 378.24863434 -0.00681013 C379.8958013 -0.00238095 381.54300356 -0.00452622 383.1901474 -0.01431328 C406.88602194 -0.14419276 427.77087098 7.24625329 445.140625 23.69543457 C463.56774388 42.95405372 469.54232544 67.28760651 469.53779602 93.33985901 C469.54147271 94.49205396 469.5451494 95.6442489 469.5489375 96.83135885 C469.55990341 100.67155342 469.56380604 104.51172088 469.56762695 108.35192871 C469.57337128 111.11396512 469.58053215 113.87599756 469.58753967 116.63803101 C469.60721756 124.90839002 469.61735732 133.17875009 469.62626746 141.44912663 C469.63066293 145.35350523 469.63602629 149.2578825 469.64125633 153.16226006 C469.65825675 166.15626907 469.67274962 179.15027728 469.68000507 192.14429569 C469.68191463 195.50924239 469.68383501 198.87418907 469.68579102 202.23913574 C469.68627476 203.07536543 469.6867585 203.91159512 469.6872569 204.7731651 C469.69555276 218.31169329 469.72088751 231.85013301 469.75337169 245.38862259 C469.78652052 259.31868587 469.80446071 273.24870429 469.80764931 287.1788072 C469.80980673 294.98783744 469.81844253 302.79673848 469.84411049 310.60573006 C469.86592441 317.25706102 469.87381564 323.90823136 469.86414371 330.55959404 C469.85963015 333.94618991 469.86353915 337.33218906 469.88090515 340.71878242 C470.01697282 368.84215043 465.5072997 392.57739067 445.703125 413.69543457 C436.9847512 422.10672935 426.61486455 427.24932604 415.390625 431.50793457 C414.65994238 431.82568747 413.92925975 432.14344038 413.17643523 432.47082216 C401.60114945 436.78011518 389.2356497 436.94283933 377.05804443 436.88215637 C375.36986677 436.88490401 373.68169084 436.88896208 371.99351907 436.89420003 C367.40092526 436.90469224 362.80852877 436.89672006 358.21594381 436.88544953 C353.24525243 436.87654927 348.27458526 436.88506765 343.30389404 436.89131165 C333.58573998 436.90076709 323.86766052 436.89422885 314.14951202 436.8820487 C302.82219659 436.86838376 291.49489864 436.87007046 280.16757706 436.87218203 C259.95382517 436.87536702 239.7401086 436.86373129 219.52636719 436.84411621 C199.9287 436.82510407 180.33107418 436.81803192 160.73339844 436.8236084 C139.3670615 436.8296702 118.00074272 436.82948253 96.63440728 436.81812257 C94.35506964 436.81691533 92.07573199 436.81570934 89.79639435 436.81450462 C88.67504571 436.81390108 87.55369707 436.81329755 86.39836816 436.81267572 C78.50900269 436.80880195 70.61964398 436.80918806 62.73027802 436.81109047 C53.11455508 436.81321548 43.49886831 436.80796486 33.88315555 436.79347692 C28.98039657 436.78624855 24.07769017 436.78214264 19.17492676 436.78672028 C14.68206883 436.79081309 10.18931922 436.78558481 5.69647768 436.7730942 C4.07629807 436.77017981 2.45610817 436.77057928 0.83593127 436.77473728 C-23.12282185 436.83061508 -46.8247764 431.56598652 -64.609375 414.50793457 C-73.43474294 405.14223798 -79.64420938 393.92072686 -83.984375 381.88293457 C-84.2230127 381.22736572 -84.46165039 380.57179688 -84.70751953 379.8963623 C-88.11065556 369.86781503 -88.90679833 359.64730798 -88.87680054 349.12506104 C-88.88133165 347.93778325 -88.88586276 346.75050547 -88.89053118 345.52724957 C-88.90092152 342.26735052 -88.90251485 339.00759198 -88.90014243 335.74768186 C-88.89973125 332.2178857 -88.91080182 328.68812142 -88.92025757 325.15834045 C-88.93680308 318.25641668 -88.94236416 311.35452709 -88.94348232 304.45258513 C-88.94443577 298.83753852 -88.94856077 293.22250309 -88.95488358 287.60746002 C-88.97247753 271.65618197 -88.98172521 255.70493072 -88.98022263 239.75364289 C-88.98014272 238.89541559 -88.9800628 238.03718829 -88.97998047 237.1529541 C-88.97989871 236.29366819 -88.97981695 235.43438227 -88.97973271 234.54905739 C-88.97892009 220.62845156 -88.99805655 206.707954 -89.0262572 192.78737947 C-89.05504514 178.46287743 -89.06879429 164.1384281 -89.06706965 149.81389642 C-89.06640784 141.78416632 -89.07180816 133.75454978 -89.09342575 125.72484589 C-89.11171545 118.88797657 -89.11592134 112.0512723 -89.1024069 105.214389 C-89.09591654 101.73279975 -89.09561563 98.25152642 -89.1131134 94.76996803 C-89.22791173 66.79780912 -84.79340073 45.3541245 -64.796875 24.32043457 C-46.21996924 6.69431532 -25.14720545 -0.14942065 0 0 Z " fill="#252525" transform="translate(191.609375,115.4920654296875)"/>
<path d="M0 0 C4.80709994 0.00894472 9.61417577 0.00036934 14.42127562 -0.00586212 C23.80774376 -0.01529217 33.19413438 -0.0088019 42.58059672 0.00340082 C53.53299948 0.01710283 64.48538431 0.01537584 75.43779346 0.01326749 C94.98912705 0.01008622 114.54042406 0.02169679 134.09174681 0.04133332 C153.02535188 0.06034419 171.95891412 0.06741704 190.89252806 0.06184113 C211.56019197 0.05577247 232.22783711 0.05597951 252.89549947 0.06732696 C255.1023922 0.06853414 257.30928492 0.06974012 259.51617765 0.07094491 C261.14452533 0.07185021 261.14452533 0.07185021 262.80576892 0.07277381 C270.42488297 0.0766394 278.04398999 0.07626467 285.66310453 0.07435906 C294.95571833 0.07222893 304.2482948 0.07752309 313.54089811 0.09197261 C318.27432031 0.09917606 323.00768837 0.10332851 327.74111509 0.09872925 C332.08601483 0.09461041 336.43080346 0.0999368 340.77568647 0.11235533 C342.33522855 0.11524897 343.89478133 0.11490158 345.45432046 0.11071225 C362.44761808 0.06925916 378.82813492 1.8523399 395.23139524 6.37751496 C397.07797728 6.88218293 397.07797728 6.88218293 398.96186399 7.39704621 C415.60038566 12.44388611 430.13509658 21.06105461 443.23139524 32.37751496 C444.20592649 33.18962433 445.18045774 34.00173371 446.18452024 34.83845246 C461.39757995 47.96927774 472.51866262 66.11651036 478.23139524 85.37751496 C478.5666928 86.43740191 478.90199036 87.49728886 479.24744844 88.5892936 C483.01883299 102.14755886 482.79960167 115.62226501 482.73963487 129.60409153 C482.7283989 133.25929015 482.74050895 136.91442843 482.74947691 140.56962311 C482.76332739 147.7078809 482.75591387 154.8459604 482.74080133 161.98420952 C482.72383586 170.31894745 482.72716479 178.65364225 482.73089541 186.98839213 C482.73675919 201.8738321 482.72266186 216.7591872 482.69794798 231.6446048 C482.67404028 246.04632988 482.66694229 260.44794157 482.67744017 274.84968293 C482.68888437 290.57756518 482.69073568 306.30539513 482.67634207 322.0332768 C482.67481643 323.71479658 482.67329608 325.39631636 482.67178106 327.07783616 C482.67102325 327.90490914 482.67026543 328.73198211 482.66948466 329.58411791 C482.66476813 335.37578147 482.66657451 341.16742146 482.67084646 346.95908463 C482.67580538 354.03143005 482.6696469 361.10366889 482.64995217 368.17599009 C482.64017128 371.77538666 482.6348735 375.37462198 482.64284468 378.9740268 C482.71961665 417.92078414 474.83309623 451.90157732 447.07123899 480.63142121 C434.29588958 492.98502594 418.51120736 500.75611632 402.23139524 507.37751496 C401.43475462 507.7062259 400.63811399 508.03493683 399.81733274 508.37360871 C386.52269587 513.32701589 372.16432782 513.81961866 358.16009092 513.75846589 C356.40377897 513.76193183 354.6474692 513.76670262 352.89116389 513.77264762 C348.11473326 513.78505863 343.33848469 513.77903287 338.5620538 513.76968896 C333.39157048 513.76285786 328.2211169 513.77339966 323.05063963 513.78162873 C312.94159108 513.7949249 302.83260959 513.79210681 292.72355848 513.78339081 C284.5037486 513.77659878 276.28395744 513.77570409 268.06414557 513.77896225 C266.89153993 513.77942195 265.7189343 513.77988165 264.51079516 513.78035528 C262.12822794 513.78131452 259.74566072 513.78228716 257.3630935 513.78327306 C235.05489515 513.7918148 212.74673387 513.78201173 190.4385416 513.76587196 C171.320402 513.75246814 152.20231706 513.75479978 133.08417845 513.76862824 C110.85091696 513.78470253 88.6176879 513.79099278 66.38442141 513.78179145 C64.011224 513.78083586 61.63802658 513.77989275 59.26482916 513.77896225 C58.09734848 513.77849943 56.9298678 513.7780366 55.72700892 513.77755975 C47.52190929 513.77497554 39.31683034 513.77932853 31.11173391 513.78640091 C21.1056403 513.7948366 11.09961725 513.79249231 1.09353166 513.77655868 C-4.00620415 513.76870404 -9.10582255 513.76553627 -14.20555735 513.77550614 C-18.88305038 513.78451189 -23.56031828 513.77942437 -28.23779117 513.76357348 C-29.92059605 513.76025042 -31.60342035 513.76186322 -33.28621251 513.76920085 C-65.90829634 513.90042109 -93.15905673 501.64246561 -116.76860476 479.37751496 C-117.44536257 478.76521027 -118.12212038 478.15290558 -118.81938601 477.52204621 C-136.58389739 460.82554152 -150.93781322 433.47990716 -151.86240184 408.88213563 C-151.90074132 405.72295977 -151.90662565 402.56513899 -151.90231752 399.40572846 C-151.90458308 398.19020324 -151.90684864 396.97467802 -151.90918285 395.72231871 C-151.91441351 392.35574574 -151.91516849 388.98922623 -151.91398847 385.62265301 C-151.91378418 381.9884869 -151.91930607 378.35432873 -151.92404604 374.72016633 C-151.93234856 367.60118853 -151.93510075 360.48221902 -151.93565842 353.36323679 C-151.93613399 347.57212643 -151.93819083 341.78101879 -151.94135904 335.98990929 C-151.95016639 319.55542075 -151.95477857 303.12093873 -151.95402857 286.68644781 C-151.95398861 285.8006694 -151.95394866 284.91489099 -151.95390749 284.00227082 C-151.95386661 283.11540467 -151.95382573 282.22853852 -151.95378361 281.31479763 C-151.95337765 266.95991274 -151.96293435 252.60505415 -151.97704586 238.25017685 C-151.99143546 223.49534069 -151.99831454 208.74051732 -151.99745208 193.98567396 C-151.99712089 185.70832308 -151.99983353 177.43099972 -152.01063013 169.15365517 C-152.01976942 162.10182086 -152.02188256 155.05002655 -152.01512071 147.99818886 C-152.01187204 144.40546315 -152.01173829 140.81281402 -152.02047396 137.22009575 C-152.11363597 96.35407038 -143.27781366 63.29698209 -114.20610476 33.37751496 C-82.95684766 2.17861928 -41.66731184 -0.10642471 0 0 Z M-67.26860476 47.25251496 C-67.93456667 47.60128693 -68.60052858 47.9500589 -69.28667116 48.30939972 C-74.1525089 50.91187662 -78.60014795 53.74550513 -82.76860476 57.37751496 C-83.96356569 58.37718293 -83.96356569 58.37718293 -85.18266726 59.39704621 C-97.61575746 70.12105604 -108.16161855 84.09666629 -111.76860476 100.37751496 C-111.92833448 100.97060735 -112.08806421 101.56369974 -112.25263423 102.17476463 C-113.88722628 108.62320922 -114.05216186 114.77787435 -114.02930117 121.40635407 C-114.03312671 122.59177414 -114.03695226 123.77719422 -114.04089373 124.99853611 C-114.04939056 128.26714771 -114.04900397 131.53561459 -114.04471314 134.80422986 C-114.04223722 138.33814579 -114.05127096 141.87203577 -114.05875063 145.40594208 C-114.0714772 152.3219829 -114.07329375 159.23798485 -114.07095037 166.1540354 C-114.0691642 171.78012676 -114.07092326 177.40620635 -114.07517481 183.0322963 C-114.07577 183.83437617 -114.07636519 184.63645604 -114.07697841 185.46284135 C-114.07819023 187.09254858 -114.07940436 188.72225581 -114.08062079 190.35196303 C-114.09148917 205.62496271 -114.08933759 220.8979403 -114.08323594 236.17094122 C-114.07807152 250.11826085 -114.08931092 264.06551053 -114.10833416 278.01281632 C-114.12774685 292.35642769 -114.13596229 306.70000602 -114.13221091 321.0436306 C-114.13030354 329.08732311 -114.1327407 337.13095617 -114.14692545 345.17463791 C-114.1588843 352.02513092 -114.16019423 358.87552789 -114.14813528 365.72602232 C-114.14227703 369.21551471 -114.14106137 372.70483186 -114.15313768 376.19431221 C-114.23206163 404.67662849 -110.43150511 431.81772744 -89.76860476 453.37751496 C-70.46402105 470.84356688 -47.78446603 475.53368859 -22.30472231 475.51795685 C-20.62543866 475.52054346 -18.94615562 475.52355745 -17.26687342 475.52696025 C-12.66625217 475.53499869 -8.06564655 475.53681806 -3.46501911 475.53755772 C1.50245954 475.53941378 6.46993017 475.54696386 11.43740416 475.55369294 C22.2929701 475.5672541 33.14853233 475.57329746 44.00410533 475.5777036 C50.7869153 475.58046964 57.56972385 475.58470764 64.35253286 475.58920777 C83.14547622 475.6013973 101.93841845 475.61169739 120.73136568 475.61508286 C121.93330999 475.61530243 123.1352543 475.61552199 124.37362116 475.61574821 C125.57837969 475.61596649 126.78313822 475.61618477 128.02440459 475.61640966 C130.46555317 475.61685312 132.90670174 475.61729968 135.34785032 475.61774933 C136.55873467 475.61797076 137.76961902 475.61819219 139.01719683 475.61842033 C158.63174058 475.6223672 178.24624715 475.63981925 197.86077655 475.66310886 C218.01604139 475.68684666 238.1712876 475.69928581 258.32656664 475.70045078 C269.63602009 475.70136614 280.94542509 475.70708365 292.25486517 475.72527039 C301.88601685 475.74070413 311.5171051 475.74577253 321.1482668 475.73753229 C326.05758031 475.73363745 330.96676619 475.73449821 335.87606382 475.74858963 C340.37992876 475.76139853 344.88357109 475.76007026 349.38743602 475.74799892 C351.00722777 475.74605396 352.62703566 475.74906405 354.24680478 475.75784329 C378.626784 475.88150131 401.87232766 469.83675224 419.99311399 452.61188996 C420.73174681 451.87454621 421.47037962 451.13720246 422.23139524 450.37751496 C422.85659056 449.76392121 423.48178587 449.15032746 424.12592649 448.51813996 C438.4845687 433.34919063 444.57124831 411.97207545 444.48536253 391.53213227 C444.4900425 389.80172315 444.4900425 389.80172315 444.49481702 388.03635627 C444.50276007 384.19144555 444.49648761 380.34669428 444.49018431 376.50178254 C444.49179619 373.7365001 444.4963858 370.97122432 444.50080442 368.20594513 C444.50967659 361.48588663 444.50778573 354.76587293 444.50197914 348.0458127 C444.49745219 342.57897556 444.49685422 337.11215091 444.49902678 331.64531243 C444.49933324 330.86557094 444.49963971 330.08582945 444.49995546 329.28245943 C444.50059496 327.69808974 444.50124338 326.11372005 444.50190064 324.52935036 C444.50759805 309.68650111 444.50105628 294.84367659 444.49029991 280.00083139 C444.48137374 267.29068681 444.48290988 254.58057879 444.49213743 241.87043488 C444.50286568 227.08643892 444.50703955 212.30246465 444.5009129 197.51846534 C444.50027586 195.93857567 444.49964712 194.35868599 444.49902678 192.77879632 C444.49871822 192.00161367 444.49840967 191.22443102 444.49809177 190.42369739 C444.49637182 184.97187937 444.49926495 179.52007522 444.50398588 174.06825936 C444.50962356 167.41177301 444.50801842 160.75533376 444.49742439 154.09885273 C444.49220486 150.70860943 444.49114188 147.31850851 444.4967227 143.92825615 C444.56474856 124.56189807 444.56474856 124.56189807 442.23139524 105.37751496 C441.94439442 103.80735989 441.94439442 103.80735989 441.65159559 102.20548451 C437.82351232 82.78794785 424.37874248 63.95734927 408.35004759 52.78254426 C392.17703927 42.06922833 375.44178453 39.07046168 356.34354734 39.11008942 C354.63040089 39.10634887 352.91725615 39.10174574 351.20411408 39.09635878 C346.51452297 39.08416331 341.82500339 39.08438516 337.13540006 39.08674753 C332.07045335 39.08715657 327.00552932 39.07610815 321.94059324 39.06663239 C312.02377918 39.05004008 302.10698889 39.04452363 292.19016211 39.04340763 C284.12607941 39.04245627 276.06200455 39.03834154 267.99792433 39.03200638 C245.11764063 39.01439835 222.23737567 39.00516676 199.35708515 39.00666733 C198.1243526 39.00674724 196.89162005 39.00682716 195.62153196 39.00690949 C194.3872882 39.00699125 193.15304444 39.00707301 191.88139935 39.00715725 C171.8853789 39.0079699 151.88943382 38.98883643 131.89343517 38.96063276 C111.34489046 38.93187925 90.79638248 38.91809384 70.24781716 38.91982031 C58.71815486 38.92048338 47.18857158 38.91502729 35.65892744 38.89346421 C25.84113396 38.8752199 16.02345529 38.87093172 6.20565216 38.88448305 C1.2011116 38.89099644 -3.8032089 38.89118899 -8.80772829 38.87377656 C-13.39858309 38.85796839 -17.98904475 38.8609879 -22.57989042 38.87834482 C-24.23128023 38.88139777 -25.88269997 38.87784746 -27.53405447 38.86662467 C-41.41700765 38.77860352 -54.85582079 40.50396309 -67.26860476 47.25251496 Z " fill="#FDFBFB" transform="translate(216.7686047554016,76.62248504161835)"/>
<path d="M0 0 C113.97379913 0 113.97379913 0 135 5 C135.68626465 5.15807129 136.3725293 5.31614258 137.07958984 5.47900391 C155.76229074 9.90262639 169.62138136 19.63381908 184 32 C185.31708878 33.11271293 186.63479325 34.22469751 187.953125 35.3359375 C193.9447515 40.41848963 199.83245577 45.61951361 205.5 51.0625 C206.3971875 51.91972656 207.294375 52.77695313 208.21875 53.66015625 C210 56 210 56 209.76831055 57.80371094 C208.83950993 60.45877618 207.70247621 62.94239448 206.48828125 65.48046875 C205.98047119 66.55345215 205.47266113 67.62643555 204.94946289 68.73193359 C204.13916626 70.44243896 204.13916626 70.44243896 203.3125 72.1875 C192.11266518 96.2095217 185.88149092 119.6323845 183 146 C182.34 146 181.68 146 181 146 C180.88519287 145.44763672 180.77038574 144.89527344 180.65209961 144.32617188 C178.01107671 131.8680785 174.8111937 120.35896355 169 109 C168.45472656 107.93394531 167.90945313 106.86789062 167.34765625 105.76953125 C156.2880385 85.65403826 139.45982855 73.13061985 117.875 66.1875 C96.47020827 60.97351227 79.39558484 60.6711132 56 59 C56 124.67 56 190.34 56 258 C93.02252946 256.91110207 112.92676549 254.88370962 143 238 C144.12075928 237.3800415 144.12075928 237.3800415 145.26416016 236.74755859 C153.92093216 231.89304176 159.99695504 226.67919539 165 218 C165.33193359 217.42926758 165.66386719 216.85853516 166.00585938 216.27050781 C171.83562632 206.04927477 175.29555749 195.41977049 178.40136719 184.11230469 C179.17672506 181.37641713 180.06965654 178.6866928 181 176 C183.01171355 179.01757033 183.33034433 180.14933676 183.7109375 183.61328125 C183.87299683 184.98009033 183.87299683 184.98009033 184.03833008 186.37451172 C184.14943115 187.34404785 184.26053223 188.31358398 184.375 189.3125 C185.50407733 198.23676191 187.06127529 206.47271745 190 215 C190.20995605 215.62003906 190.41991211 216.24007812 190.63623047 216.87890625 C195.24883932 230.35830932 200.79295161 243.8292527 209.9453125 254.88671875 C211 257 211 257 210.4296875 259.47265625 C194.15092341 288.24959715 154.18238956 304.94821138 124.3671875 314.1171875 C121.25255891 314.90600989 118.16843247 315.46172933 115 316 C113.94927307 316.18121399 113.94927307 316.18121399 112.87731934 316.36608887 C98.04572147 318.85167032 83.50418492 319.43895258 68.48266602 319.33618164 C64.86125786 319.31281461 61.24060426 319.31562164 57.61914062 319.32226562 C38.29484522 319.26529236 19.36525631 318.10658607 0 317 C0 212.39 0 107.78 0 0 Z " fill="#FDFDFD" transform="translate(156,179)"/>
<path d="M0 0 C252.45 0 504.9 0 765 0 C765 220.44 765 440.88 765 668 C512.55 668 260.1 668 0 668 C0 447.56 0 227.12 0 0 Z M50.34667969 54.79394531 C40.85890533 64.9581237 32.99090574 75.98176962 26 88 C25.35289063 89.08152344 24.70578125 90.16304688 24.0390625 91.27734375 C10.98106635 114.21915911 3.84095938 140.09762987 3.85955811 166.39160156 C3.85697135 167.8580807 3.85395732 169.32455913 3.8505547 170.79103661 C3.84251709 174.80839406 3.84069693 178.82573362 3.83995724 182.84309816 C3.83810087 187.18156694 3.83055031 191.52002655 3.82382202 195.85848999 C3.81025822 205.34279504 3.80421619 214.82709586 3.79981136 224.311409 C3.79704397 230.24282419 3.79280556 236.17423776 3.78830719 242.10565186 C3.77611393 258.55235695 3.76581677 274.99906075 3.7624321 291.44577026 C3.76221253 292.49785663 3.76199297 293.549943 3.76176675 294.63391078 C3.76154847 295.68842633 3.76133019 296.74294189 3.7611053 297.82941246 C3.76066184 299.96602758 3.76021528 302.1026427 3.75976562 304.23925781 C3.7595442 305.29907844 3.75932277 306.35889906 3.75909463 307.45083547 C3.75515409 324.58982771 3.73772309 341.72877725 3.7144061 358.86775303 C3.69061839 376.49631732 3.67822678 394.12486027 3.67706418 411.75344086 C3.67615124 421.63793768 3.67049625 431.52237894 3.65224457 441.40686035 C3.63674267 449.83154654 3.63178173 458.25616001 3.63998267 466.68085778 C3.64385468 470.96940573 3.64313169 475.25780772 3.62892532 479.54633713 C3.29434771 513.09297533 3.29434771 513.09297533 10.125 545.75 C10.422854 546.68062256 10.72070801 547.61124512 11.02758789 548.57006836 C21.92486266 581.49642279 41.12268021 609.19360389 69 630 C69.96679688 630.721875 70.93359375 631.44375 71.9296875 632.1875 C112.17057205 661.08868392 156.04007292 665.48520227 204.14007437 665.39217401 C209.40191181 665.3853109 214.66372082 665.39590021 219.92555237 665.40411377 C230.20109227 665.41737649 240.47656603 665.41460697 250.7521084 665.40587585 C259.11089733 665.39907048 267.46966787 665.39819484 275.82845879 665.4014473 C277.02307318 665.401907 278.21768757 665.40236669 279.4485024 665.40284032 C281.87615177 665.4037996 284.30380113 665.40477225 286.73145049 665.4057581 C309.43618973 665.41429004 332.14089249 665.40451226 354.84562575 665.388357 C374.28325117 665.37495411 393.72082282 665.37728597 413.15844727 665.39111328 C435.7895572 665.40720505 458.42063526 665.41346808 481.05175012 665.40427649 C483.46961907 665.40332095 485.88748802 665.40237783 488.30535698 665.4014473 C490.08931864 665.40075306 490.08931864 665.40075306 491.90931993 665.40004479 C500.24846929 665.3974658 508.58759826 665.40180219 516.92674446 665.40888596 C527.10301351 665.41734117 537.27921323 665.41493682 547.45547444 665.39904372 C552.63713616 665.39121504 557.81868272 665.387976 563.00034332 665.39799118 C617.22355665 665.4939043 669.36099168 657.44185822 709.48242188 617.52539062 C709.98322266 617.02201172 710.48402344 616.51863281 711 616 C711.50337891 615.49919922 712.00675781 614.99839844 712.52539062 614.48242188 C748.32634797 578.4976342 759.49580263 534.35782421 759.40683305 485.12149763 C759.40206026 480.66325542 759.41464725 476.20505465 759.42485046 471.74682617 C759.44196454 463.03492608 759.44289384 454.32309834 759.43763756 445.61118582 C759.43358045 438.52274267 759.43505763 431.43432075 759.44038582 424.3458786 C759.44113424 423.33333639 759.44188266 422.32079417 759.44265376 421.27756886 C759.4441854 419.21994656 759.44572374 417.16232426 759.44726873 415.10470197 C759.46096727 395.84891 759.45557494 376.59315876 759.44408352 357.33736774 C759.43415597 339.76438203 759.44708828 322.19150168 759.47101771 304.61853221 C759.49546643 286.52634666 759.50500231 268.43421007 759.49836498 250.34200835 C759.4948853 240.20396977 759.49702158 230.06601213 759.51461601 219.92798615 C759.52941051 211.29704715 759.52987961 202.66624609 759.5125451 194.03530958 C759.50409158 189.64159453 759.5017452 185.24812511 759.51719666 180.85442352 C759.68195944 130.29276955 745.73830082 87.87567034 710.1875 50.875 C666.19162925 7.99118918 608.34963099 3.6581213 550.00061393 3.73855066 C545.06660672 3.74313465 540.13261283 3.73606233 535.1986084 3.73059082 C525.56690906 3.72175734 515.93524111 3.72359175 506.3035406 3.7294161 C498.46540789 3.73395712 490.62728389 3.73453502 482.78915024 3.73236847 C481.66798562 3.732062 480.546821 3.73175554 479.39168169 3.73143978 C477.11309879 3.73080025 474.83451588 3.73015182 472.55593298 3.7294946 C451.253141 3.72380888 429.9503663 3.73032122 408.64757715 3.74109533 C390.42503627 3.75002678 372.20252089 3.74847872 353.97998047 3.73925781 C332.74967495 3.72851975 311.51938454 3.7243606 290.28907669 3.73048234 C288.01887822 3.73111935 285.74867976 3.73174809 283.47848129 3.73236847 C282.36189822 3.73267702 281.24531515 3.73298557 280.09489623 3.73330347 C272.28009926 3.73502002 264.46531198 3.73213788 256.65051651 3.72740936 C247.10680964 3.72176094 237.56313561 3.7233992 228.01943244 3.73397085 C223.16335649 3.73917521 218.30733498 3.74137549 213.45125961 3.73467255 C152.52975538 3.65768695 94.65910807 8.24492749 50.34667969 54.79394531 Z " fill="#FDFCFC" transform="translate(0,0)"/>
<path d="M0 0 C2.0201617 0.01074035 4.03943477 0.00000994 6.05957031 -0.01269531 C23.81448866 -0.03298957 41.38808397 2.94161342 58.02050781 9.26074219 C58.90480469 9.59589844 59.78910156 9.93105469 60.70019531 10.27636719 C72.95569219 15.15255958 84.47461411 21.32030458 95.02050781 29.26074219 C92.0885594 38.50637497 82.05459291 45.40973658 74.62207031 51.16699219 C71.62203149 53.58143785 68.78416058 56.14814474 65.95800781 58.76074219 C65.45052002 59.22512695 64.94303223 59.68951172 64.42016602 60.16796875 C62.0732624 62.32362074 59.77766179 64.50703012 57.54003906 66.77636719 C56.79109375 67.51371094 56.04214844 68.25105469 55.27050781 69.01074219 C54.31917969 69.99300781 54.31917969 69.99300781 53.34863281 70.99511719 C49.82499758 72.91065043 46.75496361 72.16035662 43.02050781 71.26074219 C40.15735908 70.40480437 37.37369742 69.3898944 34.58300781 68.32324219 C24.08350953 64.34601288 14.98489608 62.93543742 3.70800781 63.01074219 C2.56138672 63.00300781 1.41476562 62.99527344 0.23339844 62.98730469 C-22.30938586 63.03833533 -44.51772034 69.77964263 -61.97949219 84.26074219 C-62.75655518 84.90438721 -62.75655518 84.90438721 -63.54931641 85.56103516 C-80.84642938 100.10621802 -94.40466453 120.78165691 -96.77661133 143.66894531 C-98.95682448 171.52110274 -95.28832361 199.09397843 -76.97949219 221.26074219 C-75.1111648 223.25957774 -73.23177288 225.16629577 -71.19433594 226.99121094 C-69.97949219 228.26074219 -69.97949219 228.26074219 -69.97949219 230.26074219 C-69.39941406 230.51597656 -68.81933594 230.77121094 -68.22167969 231.03417969 C-65.75602275 232.38298853 -64.11280216 233.92431883 -62.10449219 235.88574219 C-43.59363111 252.58181297 -18.15440314 258.34783222 6.10253906 259.08496094 C10.02050781 259.26074219 10.02050781 259.26074219 17.02050781 260.26074219 C17.02050781 279.73074219 17.02050781 299.20074219 17.02050781 319.26074219 C7.39894531 319.38449219 7.39894531 319.38449219 -2.41699219 319.51074219 C-4.4027124 319.5471582 -6.38843262 319.58357422 -8.43432617 319.62109375 C-44.65154254 320.00368401 -81.28220701 302.8352999 -107.55371094 278.49121094 C-109.15094227 277.02258116 -110.7785311 275.58619582 -112.43652344 274.18652344 C-140.36362812 250.39350984 -156.93520522 211.22949764 -159.97949219 175.26074219 C-160.95334527 158.5756647 -161.10578999 141.53205416 -156.97949219 125.26074219 C-156.64553282 123.76377519 -156.31359968 122.26635513 -155.98339844 120.76855469 C-146.80710646 81.03064901 -120.89480966 45.92119354 -86.60449219 24.07324219 C-84.41041832 22.77794557 -82.20140479 21.50768159 -79.97949219 20.26074219 C-79.39006836 19.92977539 -78.80064453 19.59880859 -78.19335938 19.2578125 C-54.3297871 6.07038097 -27.17663314 -0.17092222 0 0 Z " fill="#FDFDFD" transform="translate(529.9794921875,176.7392578125)"/>
<path d="M0 0 C34.98 0 69.96 0 106 0 C106 59.07 106 118.14 106 179 C89.5 179 73 179 56 179 C56 138.41 56 97.82 56 56 C44.12 56 32.24 56 20 56 C4.94736842 47.89473684 4.94736842 47.89473684 2 42 C-1.0404678 28.3178949 0 14.01586403 0 0 Z " fill="#FDFDFD" transform="translate(518,317)"/>
<path d="M0 0 C0 3 0 3 -1.50390625 4.578125 C-2.18324219 5.12984375 -2.86257812 5.6815625 -3.5625 6.25 C-7.05575957 9.1620801 -10.24098151 12.21191485 -13.359375 15.51953125 C-15.1240266 17.11191924 -16.83729933 18.03618775 -19 19 C-17.51278301 13.63576216 -13.91696828 10.47181618 -10.0625 6.6875 C-9.42892578 6.04232422 -8.79535156 5.39714844 -8.14257812 4.73242188 C-7.52962891 4.12333984 -6.91667969 3.51425781 -6.28515625 2.88671875 C-5.72707275 2.33201904 -5.16898926 1.77731934 -4.59399414 1.20581055 C-3 0 -3 0 0 0 Z " fill="#EE282D" transform="translate(66,42)"/>
<path d="M0 0 C0.556875 0.226875 1.11375 0.45375 1.6875 0.6875 C-3.8125 5.6875 -3.8125 5.6875 -8.3125 5.6875 C-7.3125 2.6875 -7.3125 2.6875 -5 0.9375 C-2.3125 -0.3125 -2.3125 -0.3125 0 0 Z " fill="#1C1C1C" transform="translate(481.3125,252.3125)"/>
<path d="M0 0 C0.33 0.66 0.66 1.32 1 2 C-0.8125 5 -0.8125 5 -3 8 C-3.99 8 -4.98 8 -6 8 C-4.73058503 4.08597051 -3.48832306 2.20927127 0 0 Z " fill="#EF2A2E" transform="translate(40,69)"/>
</svg>
